<svg width="16" height="13" viewBox="0 0 16 13" fill="none" xmlns="http://www.w3.org/2000/svg">
<path d="M10.2209 7.33548C10.2209 8.71003 9.1027 9.82822 7.72815 9.82822C6.3536 9.82822 5.23585 8.71003 5.23585 7.33548C5.23585 5.96094 6.3536 4.84275 7.72815 4.84275C9.1027 4.84275 10.2209 5.96136 10.2209 7.33548ZM15.4563 3.79593V10.8759C15.4563 11.8198 14.6911 12.585 13.7472 12.585H1.70911C0.765252 12.585 0 11.8198 0 10.8759V3.79593C0 2.85207 0.765252 2.08682 1.70911 2.08682H3.81131V1.49547C3.81131 0.669543 4.48042 0 5.30678 0H10.1495C10.9759 0 11.645 0.669543 11.645 1.49547V2.08639H13.7472C14.6911 2.08682 15.4563 2.85207 15.4563 3.79593ZM11.5027 7.33548C11.5027 5.25422 9.80942 3.56092 7.72815 3.56092C5.64732 3.56092 3.95402 5.25422 3.95402 7.33548C3.95402 9.41675 5.64732 11.11 7.72815 11.11C9.80942 11.11 11.5027 9.41675 11.5027 7.33548Z" fill="#C1C1C1"/>
</svg>
